<svg width="400" height="400" viewBox="0 0 400 400" fill="none" xmlns="http://www.w3.org/2000/svg">
  <!-- Background -->
  <circle cx="200" cy="200" r="180" fill="#E8F5E9"/>
  
  <!-- Shield -->
  <path d="M 200 80 L 280 100 L 280 200 C 280 250 240 280 200 300 C 160 280 120 250 120 200 L 120 100 Z" fill="#2EB872"/>
  <path d="M 200 100 L 260 115 L 260 200 C 260 240 230 265 200 280 C 170 265 140 240 140 200 L 140 115 Z" fill="#4CAF50"/>
  
  <!-- Checkmark -->
  <path d="M 170 200 L 190 220 L 240 160" stroke="#FFFFFF" stroke-width="12" stroke-linecap="round" stroke-linejoin="round" fill="none"/>
  
  <!-- Stars around shield -->
  <g transform="translate(140, 120)">
    <path d="M 0 -8 L -2 -2 L -8 -2 L -3 2 L -5 8 L 0 4 L 5 8 L 3 2 L 8 -2 L 2 -2 Z" fill="#FFC857"/>
  </g>
  <g transform="translate(260, 140)">
    <path d="M 0 -8 L -2 -2 L -8 -2 L -3 2 L -5 8 L 0 4 L 5 8 L 3 2 L 8 -2 L 2 -2 Z" fill="#FFC857"/>
  </g>
  <g transform="translate(150, 260)">
    <path d="M 0 -8 L -2 -2 L -8 -2 L -3 2 L -5 8 L 0 4 L 5 8 L 3 2 L 8 -2 L 2 -2 Z" fill="#FFC857"/>
  </g>
  <g transform="translate(250, 270)">
    <path d="M 0 -8 L -2 -2 L -8 -2 L -3 2 L -5 8 L 0 4 L 5 8 L 3 2 L 8 -2 L 2 -2 Z" fill="#FFC857"/>
  </g>
  
  <!-- People silhouettes -->
  <g transform="translate(100, 320)">
    <circle cx="0" cy="-10" r="8" fill="#1E90FF"/>
    <path d="M -10 0 L -10 15 L 10 15 L 10 0 C 10 -5 5 -8 0 -8 C -5 -8 -10 -5 -10 0 Z" fill="#1E90FF"/>
  </g>
  <g transform="translate(140, 330)">
    <circle cx="0" cy="-10" r="8" fill="#2EB872"/>
    <path d="M -10 0 L -10 15 L 10 15 L 10 0 C 10 -5 5 -8 0 -8 C -5 -8 -10 -5 -10 0 Z" fill="#2EB872"/>
  </g>
  <g transform="translate(180, 325)">
    <circle cx="0" cy="-10" r="8" fill="#FFC857"/>
    <path d="M -10 0 L -10 15 L 10 15 L 10 0 C 10 -5 5 -8 0 -8 C -5 -8 -10 -5 -10 0 Z" fill="#FFC857"/>
  </g>
  
  <!-- Text -->
  <text x="200" y="360" font-family="Arial, sans-serif" font-size="18" font-weight="bold" fill="#2EB872" text-anchor="middle">Safe Travel</text>
</svg>
